<?xml version="1.0" standalone="no"?>
<!DOCTYPE svg PUBLIC "-//W3C//DTD SVG 20010904//EN"
 "http://www.w3.org/TR/2001/REC-SVG-20010904/DTD/svg10.dtd">
<svg version="1.0" xmlns="http://www.w3.org/2000/svg"
 width="1024.000000pt" height="559.000000pt" viewBox="0 0 1024.000000 559.000000"
 preserveAspectRatio="xMidYMid meet">

<g transform="translate(0.000000,559.000000) scale(0.100000,-0.100000)"
fill="#000000" stroke="none">
<path d="M6054 3996 c-109 -113 -203 -206 -208 -206 -4 0 -40 34 -80 75 -39
41 -76 75 -81 75 -6 0 -33 -22 -59 -49 l-49 -50 136 -138 137 -138 46 50 c26
28 108 113 182 190 75 77 169 174 209 215 l73 76 -53 52 -54 53 -199 -205z"/>
<path d="M4865 3986 c-309 -125 -736 -299 -810 -329 l-60 -25 -3 -119 c-2
-116 -2 -118 21 -129 14 -6 65 -28 116 -50 50 -21 91 -41 91 -44 0 -4 -52 -28
-115 -55 l-116 -48 3 -141 3 -141 109 -46 c61 -25 111 -50 113 -55 2 -5 -48
-30 -110 -56 l-112 -47 -3 -139 -3 -139 116 -48 c63 -26 117 -50 119 -54 2 -3
-49 -29 -115 -56 l-119 -50 2 -139 3 -139 155 -65 c85 -36 336 -143 556 -237
l402 -172 88 37 c49 20 109 46 134 57 25 12 212 91 415 178 476 202 472 201
478 222 5 16 3 218 -1 249 -1 6 -51 33 -112 59 -60 27 -110 51 -110 55 0 3 51
29 113 56 l112 51 1 79 c0 43 -1 105 -4 138 l-5 59 -76 34 c-42 18 -93 42
-115 51 l-38 18 118 50 119 51 3 133 c1 76 -2 137 -7 144 -6 6 -58 32 -116 56
-58 24 -104 48 -102 53 1 5 52 30 112 56 l110 47 3 115 3 115 -50 23 c-27 13
-53 22 -57 20 -5 -2 -65 -62 -134 -134 -69 -71 -130 -131 -135 -133 -6 -1 -34
22 -64 52 l-54 55 -36 -18 c-20 -10 -88 -40 -151 -66 -63 -26 -162 -68 -220
-92 -58 -25 -132 -56 -165 -70 l-60 -24 -215 91 c-118 51 -228 98 -245 105
-16 8 -104 46 -195 84 -91 39 -165 73 -165 77 0 3 43 23 95 44 52 20 236 94
409 164 l314 127 144 -54 143 -55 49 51 c34 35 46 54 38 59 -18 12 -363 148
-373 148 -5 0 -112 -42 -239 -94z m-338 -817 c65 -27 143 -61 174 -75 31 -13
59 -24 62 -24 3 0 34 -13 69 -29 35 -16 111 -49 169 -74 l107 -44 221 94 c122
52 224 93 227 90 2 -2 -16 -49 -41 -103 l-46 -99 -183 -78 -183 -78 -114 52
c-63 28 -247 107 -409 175 -162 68 -312 132 -333 142 l-39 18 99 41 c54 23 99
42 100 42 1 1 55 -22 120 -50z m1375 -101 c62 -78 119 -150 126 -160 12 -16 6
-21 -62 -52 l-76 -35 0 -335 0 -336 -38 -37 c-26 -27 -68 -50 -142 -80 -58
-23 -217 -89 -353 -147 l-248 -106 -232 99 c-341 146 -662 283 -665 286 -1 1
42 21 97 44 l99 42 98 -41 c55 -23 122 -52 149 -65 28 -12 91 -39 140 -60 50
-20 140 -59 201 -86 l111 -50 144 62 c138 59 259 111 344 149 22 9 50 21 63
24 l22 7 0 274 0 275 -22 -9 c-13 -5 -45 -19 -71 -30 -27 -12 -52 -21 -57 -21
-10 0 242 530 252 530 3 0 57 -64 120 -142z m-1173 -469 c168 -72 319 -137
335 -145 40 -19 43 -19 138 22 302 132 329 142 334 130 3 -7 4 -45 2 -85 l-3
-73 -195 -84 c-107 -46 -205 -87 -217 -90 -14 -4 -162 55 -462 183 -243 103
-441 190 -441 193 0 9 162 78 184 79 10 1 157 -58 325 -130z"/>
</g>
</svg>
